<svg width="389" height="149" viewBox="0 0 389 149" fill="none" xmlns="http://www.w3.org/2000/svg">
<g clip-path="url(#clip0_40002503_693)">
<path d="M193.951 27.9245C200.796 27.9079 207.558 29.4279 213.739 32.3725C219.92 35.3172 225.364 39.6118 229.671 44.9406C232.913 35.6683 237.619 26.9771 243.611 19.1987C230.013 6.84437 212.311 0.000976562 193.951 0.000976563C175.592 0.000976562 157.89 6.84437 144.292 19.1987C150.283 26.9771 154.99 35.6683 158.232 44.9406C162.571 39.6488 168.021 35.3804 174.195 32.4392C180.369 29.4981 187.115 27.9566 193.951 27.9245Z" fill="#0FA36C"/>
<path d="M314.397 0.000745602C296.024 -0.0770276 278.294 6.77678 264.737 19.1983C260.805 22.7021 257.296 26.6556 254.282 30.9778C245.231 43.5573 240.355 58.667 240.342 74.1727C240.367 86.4663 235.517 98.2667 226.858 106.98C218.2 115.693 206.441 120.606 194.167 120.639C187.323 120.656 180.562 119.138 174.38 116.194C168.199 113.251 162.755 108.958 158.448 103.63C151.684 95.3106 147.991 84.9092 147.992 74.1802C147.98 58.6745 143.103 43.5647 134.052 30.9853C131.039 26.663 127.53 22.7095 123.597 19.2058C110.042 6.78223 92.3139 -0.0742429 73.9404 0.000745602C54.2999 0.0888176 35.4939 7.96519 21.6369 21.9065C7.78003 35.8479 0.000488281 54.7191 0.000488281 74.3912C0.000488281 94.0632 7.78003 112.934 21.6369 126.876C35.4939 140.817 54.2999 148.693 73.9404 148.782C92.3139 148.859 110.043 142.006 123.6 129.584C117.608 121.806 112.902 113.114 109.66 103.842C102.78 112.227 93.1628 117.907 82.5075 119.88C71.8522 121.853 60.8435 119.992 51.4247 114.626C42.0059 109.26 34.7827 100.734 31.0301 90.5521C27.2776 80.3705 27.237 69.1883 30.9156 58.9797C34.5941 48.771 41.7553 40.1922 51.1349 34.7577C60.5145 29.3232 71.5094 27.3824 82.1788 29.278C92.8481 31.1735 102.506 36.7836 109.447 45.1177C116.388 53.4518 120.167 63.9742 120.115 74.8273C120.128 90.333 125.004 105.443 134.055 118.022C137.069 122.344 140.578 126.298 144.51 129.802C158.109 142.156 175.811 148.999 194.17 148.999C212.529 148.999 230.232 142.156 243.83 129.802C247.763 126.298 251.272 122.344 254.285 118.022C263.337 105.443 268.215 90.3333 268.228 74.8273C268.148 63.8854 271.934 53.2677 278.916 44.8519C285.898 36.436 295.626 30.7641 306.381 28.8392C317.135 26.9143 328.223 28.8605 337.683 34.3334C347.143 39.8064 354.366 48.4537 358.074 58.746C361.783 69.0383 361.738 80.3127 357.949 90.5753C354.159 100.838 346.868 109.428 337.365 114.826C327.862 120.224 316.759 122.082 306.021 120.072C295.282 118.062 285.599 112.313 278.683 103.842C275.441 113.114 270.735 121.806 264.743 129.584C278.3 142.006 296.029 148.859 314.403 148.782C324.185 148.825 333.878 146.934 342.928 143.215C351.977 139.496 360.204 134.023 367.136 127.111C374.068 120.199 379.569 111.984 383.322 102.936C387.076 93.8891 389.008 84.1884 389.008 74.3912C389.008 64.5939 387.076 54.8932 383.322 45.846C379.569 36.7987 374.068 28.5832 367.136 21.671C360.204 14.7589 351.977 9.2863 342.928 5.56749C333.878 1.84867 324.185 -0.0431166 314.403 0.000745602H314.397Z" fill="#0FA36C"/>
<path d="M73.504 98.6068C86.8563 98.6068 97.6804 87.7654 97.6804 74.3918C97.6804 61.0182 86.8563 50.1768 73.504 50.1768C60.1518 50.1768 49.3276 61.0182 49.3276 74.3918C49.3276 87.7654 60.1518 98.6068 73.504 98.6068Z" fill="#1A1A1A"/>
<path d="M193.95 98.6068C207.302 98.6068 218.126 87.7654 218.126 74.3918C218.126 61.0182 207.302 50.1768 193.95 50.1768C180.598 50.1768 169.773 61.0182 169.773 74.3918C169.773 87.7654 180.598 98.6068 193.95 98.6068Z" fill="#1A1A1A"/>
<path d="M314.397 98.6068C327.749 98.6068 338.573 87.7654 338.573 74.3918C338.573 61.0182 327.749 50.1768 314.397 50.1768C301.045 50.1768 290.221 61.0182 290.221 74.3918C290.221 87.7654 301.045 98.6068 314.397 98.6068Z" fill="#1A1A1A"/>
</g>
<defs>
<clipPath id="clip0_40002503_693">
<rect width="389" height="149" fill="white"/>
</clipPath>
</defs>
</svg>
